<?xml version="1.0" encoding="UTF-8"?>
<svg id="Layer_1" data-name="Layer 1" xmlns="http://www.w3.org/2000/svg" viewBox="0 0 1281.35 61.2">
  <defs>
    <style>
      .cls-1 {
        stroke: #143652;
        stroke-miterlimit: 10;
        stroke-width: 3px;
      }

      .cls-1, .cls-2 {
        fill: #fff;
      }

      .cls-3 {
        fill: #143652;
      }

      .cls-3, .cls-2 {
        stroke-width: 0px;
      }
    </style>
  </defs>
  <g>
    <rect class="cls-3" x="322.36" y="1.5" width="155.28" height="58.2" rx="12.8" ry="12.8"/>
    <g>
      <path class="cls-2" d="m363.98,18.68c0,1.2.01,2.32-3.82,2.32l-11.68-.06c-3.83,0-3.95-1.13-3.95-2.32v-9.32c0-1.19,1.29-1.68,3.58-1.68l12.43-.06c3.83,0,3.44.6,3.44,1.79v9.32Zm11.8,33.26c0,1.2-1.92,1.79-5.74,1.79h-31.54c-3.83,0-5.74-.6-5.74-1.79v-26.54c0-1.19,1.91-1.79,5.74-1.79h31.54c3.83,0,5.74.6,5.74,1.79v26.54Z"/>
      <path class="cls-2" d="m393.83,14.86c0,.5,5.21-3.46,6.34-4.62l2.55-2.35c.24-.22.55-.36.87-.38,2.07-.15,3.2.04,4.75.04h11.47c.52,0,.78.36.78,1.08,0,.66-.19,1.22-.58,1.68,0,0-6.24,9.07-12.69,16.56-.66.76-.38,1.57.06,2.6.01.03.03.06.05.09l12.55,20.88s.04.08.06.12c.22.61.43.95.56,1.61.14.71-.26,1.08-.77,1.08h-15.61c-.42,0-1.05-.17-1.41-.39-2.04-1.22-4.55-3.12-4.75-3.28,0,0-.02-.01-.03-.02-1.02-.69-3.66-2.79-4.19-3.11m0,0v2.72c0,1.32-.35,4.08-1.65,4.08h-11.7c-1.29,0-1.94-.66-1.94-1.97V9.54c0-1.31.65-1.97,1.94-1.97h12.18c1.29,0,1.16,1.09,1.16,2.41v4.89"/>
      <path class="cls-2" d="m467.25,50.62c0,1.47-1.19,2.67-2.67,2.67h-33.01c-3.81,0-6.23-1.35-8.92-4.04-2.69-2.69-4.04-5.95-4.04-9.76v-17.8c0-3.96,1.61-7.76,4.47-10.49,2.53-2.41,4.89-3.62,8.49-3.62h21.88c3.81,0,7.06,1.35,9.76,4.04,2.69,2.69,4.04,5.95,4.04,9.76v7.79c0,2.69,0,8.03-9.86,7.97h-25.13c-1.47,0-2.67,1.19-2.67,2.67v.07c0,.88.71,1.6,1.6,1.6h33.38c1.47,0,2.67,1.19,2.67,2.67v6.49Z"/>
    </g>
  </g>
  <rect class="cls-1" x="160.44" y="1.5" width="155.28" height="58.2" rx="12.8" ry="12.8"/>
  <rect class="cls-1" x="160.44" y="1.5" width="155.28" height="58.2" rx="12.8" ry="12.8"/>
  <g>
    <path class="cls-3" d="m202.06,18.68c0,1.2.01,2.32-3.82,2.32l-11.68-.06c-3.83,0-3.95-1.13-3.95-2.32v-9.32c0-1.19,1.29-1.68,3.58-1.68l12.43-.06c3.83,0,3.44.6,3.44,1.79v9.32Zm11.8,33.26c0,1.2-1.92,1.79-5.74,1.79h-31.54c-3.83,0-5.74-.6-5.74-1.79v-26.54c0-1.19,1.91-1.79,5.74-1.79h31.54c3.83,0,5.74.6,5.74,1.79v26.54Z"/>
    <path class="cls-3" d="m231.91,14.86c0,.5,5.21-3.46,6.34-4.62l2.55-2.35c.24-.22.55-.36.87-.38,2.07-.15,3.2.04,4.75.04h11.47c.52,0,.78.36.78,1.08,0,.66-.19,1.22-.58,1.68,0,0-6.24,9.07-12.69,16.56-.66.76-.38,1.57.06,2.6.01.03.03.06.05.09l12.55,20.88s.04.08.06.12c.22.61.43.95.56,1.61.14.71-.26,1.08-.77,1.08h-15.61c-.42,0-1.05-.17-1.41-.39-2.04-1.22-4.55-3.12-4.75-3.28,0,0-.02-.01-.03-.02-1.02-.69-3.66-2.79-4.19-3.11m0,0v2.72c0,1.32-.35,4.08-1.65,4.08h-11.7c-1.29,0-1.94-.66-1.94-1.97V9.54c0-1.31.65-1.97,1.94-1.97h12.18c1.29,0,1.16,1.09,1.16,2.41v4.89"/>
    <path class="cls-3" d="m305.33,50.62c0,1.47-1.19,2.67-2.67,2.67h-33.01c-3.81,0-6.23-1.35-8.92-4.04-2.69-2.69-4.04-5.95-4.04-9.76v-17.8c0-3.96,1.61-7.76,4.47-10.49,2.53-2.41,4.89-3.62,8.49-3.62h21.88c3.81,0,7.06,1.35,9.76,4.04,2.69,2.69,4.04,5.95,4.04,9.76v7.79c0,2.69,0,8.03-9.86,7.97h-25.13c-1.47,0-2.67,1.19-2.67,2.67v.07c0,.88.71,1.6,1.6,1.6h33.38c1.47,0,2.67,1.19,2.67,2.67v6.49Z"/>
  </g>
  <g>
    <rect class="cls-3" y="1.5" width="155.28" height="58.2" rx="12.8" ry="12.8"/>
    <g>
      <path class="cls-2" d="m41.62,18.68c0,1.2.01,2.32-3.82,2.32l-11.68-.06c-3.83,0-3.95-1.13-3.95-2.32v-9.32c0-1.19,1.29-1.68,3.58-1.68l12.43-.06c3.83,0,3.44.6,3.44,1.79v9.32Zm11.8,33.26c0,1.2-1.92,1.79-5.74,1.79h-31.54c-3.83,0-5.74-.6-5.74-1.79v-26.54c0-1.19,1.91-1.79,5.74-1.79h31.54c3.83,0,5.74.6,5.74,1.79v26.54Z"/>
      <path class="cls-2" d="m71.47,14.86c0,.5,5.21-3.46,6.34-4.62l2.55-2.35c.24-.22.55-.36.87-.38,2.07-.15,3.2.04,4.75.04h11.47c.52,0,.78.36.78,1.08,0,.66-.19,1.22-.58,1.68,0,0-6.24,9.07-12.69,16.56-.66.76-.38,1.57.06,2.6.01.03.03.06.05.09l12.55,20.88s.04.08.06.12c.22.61.43.95.56,1.61.14.71-.26,1.08-.77,1.08h-15.61c-.42,0-1.05-.17-1.41-.39-2.04-1.22-4.55-3.12-4.75-3.28,0,0-.02-.01-.03-.02-1.02-.69-3.66-2.79-4.19-3.11m0,0v2.72c0,1.32-.35,4.08-1.65,4.08h-11.7c-1.29,0-1.94-.66-1.94-1.97V9.54c0-1.31.65-1.97,1.94-1.97h12.18c1.29,0,1.16,1.09,1.16,2.41v4.89"/>
      <path class="cls-2" d="m144.89,50.62c0,1.47-1.19,2.67-2.67,2.67h-33.01c-3.81,0-6.23-1.35-8.92-4.04-2.69-2.69-4.04-5.95-4.04-9.76v-17.8c0-3.96,1.61-7.76,4.47-10.49,2.53-2.41,4.89-3.62,8.49-3.62h21.88c3.81,0,7.06,1.35,9.76,4.04,2.69,2.69,4.04,5.95,4.04,9.76v7.79c0,2.69,0,8.03-9.86,7.97h-25.13c-1.47,0-2.67,1.19-2.67,2.67v.07c0,.88.71,1.6,1.6,1.6h33.38c1.47,0,2.67,1.19,2.67,2.67v6.49Z"/>
    </g>
  </g>
  <g>
    <rect class="cls-3" x="643.24" y="1.5" width="155.28" height="58.2" rx="12.8" ry="12.8"/>
    <g>
      <path class="cls-2" d="m684.86,18.68c0,1.2.01,2.32-3.82,2.32l-11.68-.06c-3.83,0-3.95-1.13-3.95-2.32v-9.32c0-1.19,1.29-1.68,3.58-1.68l12.43-.06c3.83,0,3.44.6,3.44,1.79v9.32Zm11.8,33.26c0,1.2-1.92,1.79-5.74,1.79h-31.54c-3.83,0-5.74-.6-5.74-1.79v-26.54c0-1.19,1.91-1.79,5.74-1.79h31.54c3.83,0,5.74.6,5.74,1.79v26.54Z"/>
      <path class="cls-2" d="m714.71,14.86c0,.5,5.21-3.46,6.34-4.62l2.55-2.35c.24-.22.55-.36.87-.38,2.07-.15,3.2.04,4.75.04h11.47c.52,0,.78.36.78,1.08,0,.66-.19,1.22-.58,1.68,0,0-6.24,9.07-12.69,16.56-.66.76-.38,1.57.06,2.6.01.03.03.06.05.09l12.55,20.88s.04.08.06.12c.22.61.43.95.56,1.61.14.71-.26,1.08-.77,1.08h-15.61c-.42,0-1.05-.17-1.41-.39-2.04-1.22-4.55-3.12-4.75-3.28,0,0-.02-.01-.03-.02-1.02-.69-3.66-2.79-4.19-3.11m0,0v2.72c0,1.32-.35,4.08-1.65,4.08h-11.7c-1.29,0-1.94-.66-1.94-1.97V9.54c0-1.31.65-1.97,1.94-1.97h12.18c1.29,0,1.16,1.09,1.16,2.41v4.89"/>
      <path class="cls-2" d="m788.14,50.62c0,1.47-1.19,2.67-2.67,2.67h-33.01c-3.81,0-6.23-1.35-8.92-4.04-2.69-2.69-4.04-5.95-4.04-9.76v-17.8c0-3.96,1.61-7.76,4.47-10.49,2.53-2.41,4.89-3.62,8.49-3.62h21.88c3.81,0,7.06,1.35,9.76,4.04,2.69,2.69,4.04,5.95,4.04,9.76v7.79c0,2.69,0,8.03-9.86,7.97h-25.13c-1.47,0-2.67,1.19-2.67,2.67v.07c0,.88.71,1.6,1.6,1.6h33.38c1.47,0,2.67,1.19,2.67,2.67v6.49Z"/>
    </g>
  </g>
  <g>
    <rect class="cls-1" x="482.8" y="1.5" width="155.28" height="58.2" rx="12.8" ry="12.8"/>
    <rect class="cls-1" x="482.8" y="1.5" width="155.28" height="58.2" rx="12.8" ry="12.8"/>
    <g>
      <path class="cls-3" d="m524.42,18.68c0,1.2.01,2.32-3.82,2.32l-11.68-.06c-3.83,0-3.95-1.13-3.95-2.32v-9.32c0-1.19,1.29-1.68,3.58-1.68l12.43-.06c3.83,0,3.44.6,3.44,1.79v9.32Zm11.8,33.26c0,1.2-1.92,1.79-5.74,1.79h-31.54c-3.83,0-5.74-.6-5.74-1.79v-26.54c0-1.19,1.91-1.79,5.74-1.79h31.54c3.83,0,5.74.6,5.74,1.79v26.54Z"/>
      <path class="cls-3" d="m554.27,14.86c0,.5,5.21-3.46,6.34-4.62l2.55-2.35c.24-.22.55-.36.87-.38,2.07-.15,3.2.04,4.75.04h11.47c.52,0,.78.36.78,1.08,0,.66-.19,1.22-.58,1.68,0,0-6.24,9.07-12.69,16.56-.66.76-.38,1.57.06,2.6.01.03.03.06.05.09l12.55,20.88s.04.08.06.12c.22.61.43.95.56,1.61.14.71-.26,1.08-.77,1.08h-15.61c-.42,0-1.05-.17-1.41-.39-2.04-1.22-4.55-3.12-4.75-3.28,0,0-.02-.01-.03-.02-1.02-.69-3.66-2.79-4.19-3.11m0,0v2.72c0,1.32-.35,4.08-1.65,4.08h-11.7c-1.29,0-1.94-.66-1.94-1.97V9.54c0-1.31.65-1.97,1.94-1.97h12.18c1.29,0,1.16,1.09,1.16,2.41v4.89"/>
      <path class="cls-3" d="m627.69,50.62c0,1.47-1.19,2.67-2.67,2.67h-33.01c-3.81,0-6.23-1.35-8.92-4.04-2.69-2.69-4.04-5.95-4.04-9.76v-17.8c0-3.96,1.61-7.76,4.47-10.49,2.53-2.41,4.89-3.62,8.49-3.62h21.88c3.81,0,7.06,1.35,9.76,4.04,2.69,2.69,4.04,5.95,4.04,9.76v7.79c0,2.69,0,8.03-9.86,7.97h-25.13c-1.47,0-2.67,1.19-2.67,2.67v.07c0,.88.71,1.6,1.6,1.6h33.38c1.47,0,2.67,1.19,2.67,2.67v6.49Z"/>
    </g>
  </g>
  <g>
    <rect class="cls-1" x="803.68" y="1.5" width="155.28" height="58.2" rx="12.8" ry="12.8"/>
    <rect class="cls-1" x="803.68" y="1.5" width="155.28" height="58.2" rx="12.8" ry="12.8"/>
    <g>
      <path class="cls-3" d="m845.3,18.68c0,1.2.01,2.32-3.82,2.32l-11.68-.06c-3.83,0-3.95-1.13-3.95-2.32v-9.32c0-1.19,1.29-1.68,3.58-1.68l12.43-.06c3.83,0,3.44.6,3.44,1.79v9.32Zm11.8,33.26c0,1.2-1.92,1.79-5.74,1.79h-31.54c-3.83,0-5.74-.6-5.74-1.79v-26.54c0-1.19,1.91-1.79,5.74-1.79h31.54c3.83,0,5.74.6,5.74,1.79v26.54Z"/>
      <path class="cls-3" d="m875.16,14.86c0,.5,5.21-3.46,6.34-4.62l2.55-2.35c.24-.22.55-.36.87-.38,2.07-.15,3.2.04,4.75.04h11.47c.52,0,.78.36.78,1.08,0,.66-.19,1.22-.58,1.68,0,0-6.24,9.07-12.69,16.56-.66.76-.38,1.57.06,2.6.01.03.03.06.05.09l12.55,20.88s.04.08.06.12c.22.61.43.95.56,1.61.14.71-.26,1.08-.77,1.08h-15.61c-.42,0-1.05-.17-1.41-.39-2.04-1.22-4.55-3.12-4.75-3.28,0,0-.02-.01-.03-.02-1.02-.69-3.66-2.79-4.19-3.11m0,0v2.72c0,1.32-.35,4.08-1.65,4.08h-11.7c-1.29,0-1.94-.66-1.94-1.97V9.54c0-1.31.65-1.97,1.94-1.97h12.18c1.29,0,1.16,1.09,1.16,2.41v4.89"/>
      <path class="cls-3" d="m948.58,50.62c0,1.47-1.19,2.67-2.67,2.67h-33.01c-3.81,0-6.23-1.35-8.92-4.04-2.69-2.69-4.04-5.95-4.04-9.76v-17.8c0-3.96,1.61-7.76,4.47-10.49,2.53-2.41,4.89-3.62,8.49-3.62h21.88c3.81,0,7.06,1.35,9.76,4.04,2.69,2.69,4.04,5.95,4.04,9.76v7.79c0,2.69,0,8.03-9.86,7.97h-25.13c-1.47,0-2.67,1.19-2.67,2.67v.07c0,.88.71,1.6,1.6,1.6h33.38c1.47,0,2.67,1.19,2.67,2.67v6.49Z"/>
    </g>
  </g>
  <g>
    <rect class="cls-3" x="964.13" y="1.5" width="155.28" height="58.2" rx="12.8" ry="12.8"/>
    <g>
      <path class="cls-2" d="m1005.75,18.68c0,1.2.01,2.32-3.82,2.32l-11.68-.06c-3.83,0-3.95-1.13-3.95-2.32v-9.32c0-1.19,1.29-1.68,3.58-1.68l12.43-.06c3.83,0,3.44.6,3.44,1.79v9.32Zm11.8,33.26c0,1.2-1.92,1.79-5.74,1.79h-31.54c-3.83,0-5.74-.6-5.74-1.79v-26.54c0-1.19,1.91-1.79,5.74-1.79h31.54c3.83,0,5.74.6,5.74,1.79v26.54Z"/>
      <path class="cls-2" d="m1035.6,14.86c0,.5,5.21-3.46,6.34-4.62l2.55-2.35c.24-.22.55-.36.87-.38,2.07-.15,3.2.04,4.75.04h11.47c.52,0,.78.36.78,1.08,0,.66-.19,1.22-.58,1.68,0,0-6.24,9.07-12.69,16.56-.66.76-.38,1.57.06,2.6.01.03.03.06.05.09l12.55,20.88s.04.08.06.12c.22.61.43.95.56,1.61.14.71-.26,1.08-.77,1.08h-15.61c-.42,0-1.05-.17-1.41-.39-2.04-1.22-4.55-3.12-4.75-3.28,0,0-.02-.01-.03-.02-1.02-.69-3.66-2.79-4.19-3.11m0,0v2.72c0,1.32-.35,4.08-1.65,4.08h-11.7c-1.29,0-1.94-.66-1.94-1.97V9.54c0-1.31.65-1.97,1.94-1.97h12.18c1.29,0,1.16,1.09,1.16,2.41v4.89"/>
      <path class="cls-2" d="m1109.02,50.62c0,1.47-1.19,2.67-2.67,2.67h-33.01c-3.81,0-6.23-1.35-8.92-4.04-2.69-2.69-4.04-5.95-4.04-9.76v-17.8c0-3.96,1.61-7.76,4.47-10.49,2.53-2.41,4.89-3.62,8.49-3.62h21.88c3.81,0,7.06,1.35,9.76,4.04,2.69,2.69,4.04,5.95,4.04,9.76v7.79c0,2.69,0,8.03-9.86,7.97h-25.13c-1.47,0-2.67,1.19-2.67,2.67v.07c0,.88.71,1.6,1.6,1.6h33.38c1.47,0,2.67,1.19,2.67,2.67v6.49Z"/>
    </g>
  </g>
  <g>
    <rect class="cls-1" x="1124.57" y="1.5" width="155.28" height="58.2" rx="12.8" ry="12.8"/>
    <rect class="cls-1" x="1124.57" y="1.5" width="155.28" height="58.2" rx="12.8" ry="12.8"/>
    <g>
      <path class="cls-3" d="m1166.19,18.68c0,1.2.01,2.32-3.82,2.32l-11.68-.06c-3.83,0-3.95-1.13-3.95-2.32v-9.32c0-1.19,1.29-1.68,3.58-1.68l12.43-.06c3.83,0,3.44.6,3.44,1.79v9.32Zm11.8,33.26c0,1.2-1.92,1.79-5.74,1.79h-31.54c-3.83,0-5.74-.6-5.74-1.79v-26.54c0-1.19,1.91-1.79,5.74-1.79h31.54c3.83,0,5.74.6,5.74,1.79v26.54Z"/>
      <path class="cls-3" d="m1196.04,14.86c0,.5,5.21-3.46,6.34-4.62l2.55-2.35c.24-.22.55-.36.87-.38,2.07-.15,3.2.04,4.75.04h11.47c.52,0,.78.36.78,1.08,0,.66-.19,1.22-.58,1.68,0,0-6.24,9.07-12.69,16.56-.66.76-.38,1.57.06,2.6.01.03.03.06.05.09l12.55,20.88s.04.08.06.12c.22.61.43.95.56,1.61.14.71-.26,1.08-.77,1.08h-15.61c-.42,0-1.05-.17-1.41-.39-2.04-1.22-4.55-3.12-4.75-3.28,0,0-.02-.01-.03-.02-1.02-.69-3.66-2.79-4.19-3.11m0,0v2.72c0,1.32-.35,4.08-1.65,4.08h-11.7c-1.29,0-1.94-.66-1.94-1.97V9.54c0-1.31.65-1.97,1.94-1.97h12.18c1.29,0,1.16,1.09,1.16,2.41v4.89"/>
      <path class="cls-3" d="m1269.46,50.62c0,1.47-1.19,2.67-2.67,2.67h-33.01c-3.81,0-6.23-1.35-8.92-4.04-2.69-2.69-4.04-5.95-4.04-9.76v-17.8c0-3.96,1.61-7.76,4.47-10.49,2.53-2.41,4.89-3.62,8.49-3.62h21.88c3.81,0,7.06,1.35,9.76,4.04,2.69,2.69,4.04,5.95,4.04,9.76v7.79c0,2.69,0,8.03-9.86,7.97h-25.13c-1.47,0-2.67,1.19-2.67,2.67v.07c0,.88.71,1.6,1.6,1.6h33.38c1.47,0,2.67,1.19,2.67,2.67v6.49Z"/>
    </g>
  </g>
</svg>