<?xml version="1.0" encoding="UTF-8"?>
<svg id="Layer_1" data-name="Layer 1" xmlns="http://www.w3.org/2000/svg" viewBox="0 0 783 359">
  <defs>
    <style>
      .cls-1 {
        fill: #163652;
      }

      .cls-1, .cls-2 {
        stroke-width: 0px;
      }

      .cls-2 {
        fill: #fff;
      }
    </style>
  </defs>
  <g>
    <rect class="cls-1" x="1.3" y="178.38" width="94.26" height="33.61" rx="9.2" ry="9.2"/>
    <path class="cls-2" d="m25.51,187.98c0,.74,0,1.43-2.32,1.43l-7.09-.04c-2.33,0-2.4-.69-2.4-1.43v-5.74c0-.74.78-1.03,2.17-1.03l7.54-.04c2.32,0,2.09.37,2.09,1.1v5.74Zm7.16,20.48c0,.74-1.16,1.1-3.49,1.1H10.04c-2.33,0-3.49-.37-3.49-1.1v-16.34c0-.74,1.16-1.1,3.49-1.1h19.14c2.32,0,3.49.37,3.49,1.1v16.34Z"/>
    <path class="cls-2" d="m43.63,185.63c0,.31,3.16-2.13,3.85-2.84l1.66-1.55c.07-.07.17-.11.27-.12,1.35-.11,2.06.02,3.04.02h6.96c.31,0,.47.22.47.67,0,.41-.12.75-.35,1.03,0,0-3.79,5.59-7.7,10.2-.4.48-.22.98.05,1.63l7.65,12.92c.14.4.27.61.35,1.03s-.16.67-.47.67h-9.57c-.19,0-.38-.02-.55-.11-1.32-.77-3.1-2.15-3.1-2.15-.61-.42-2.23-1.72-2.56-1.92m0,0v1.68c0,.81-.22,2.51-1,2.51h-7.1c-.78,0-1.18-.4-1.18-1.21v-25.72c0-.81.39-1.21,1.18-1.21h7.4c.78,0,.7.67.7,1.48v3.01"/>
    <path class="cls-2" d="m89.42,208.07c0,.67-.54,1.21-1.2,1.21h-20.46c-2.31,0-3.78-.83-5.42-2.49-1.64-1.66-2.45-3.66-2.45-6.01v-11.16c0-2.25.88-4.41,2.45-6s3.11-2.49,5.42-2.49h13.28c2.31,0,4.29.83,5.92,2.49,1.63,1.66,2.45,3.66,2.45,6.01v4.8c0,1.66,0,4.95-5.98,4.91h-15.67c-.66,0-1.2.54-1.2,1.21v.9c0,.31.25.56.55.56h21.11c.66,0,1.2.54,1.2,1.21v4.85Z"/>
  </g>
  <g>
    <rect class="cls-2" x="99.83" y="178.91" width="93.26" height="32.61" rx="8.7" ry="8.7"/>
    <path class="cls-1" d="m184.4,179.41c4.52,0,8.2,3.68,8.2,8.2v15.22c0,4.52-3.68,8.2-8.2,8.2h-75.86c-4.52,0-8.2-3.68-8.2-8.2v-15.22c0-4.52,3.68-8.2,8.2-8.2h75.86m0-1h-75.86c-5.06,0-9.2,4.14-9.2,9.2v15.22c0,5.06,4.14,9.2,9.2,9.2h75.86c5.06,0,9.2-4.14,9.2-9.2v-15.22c0-5.06-4.14-9.2-9.2-9.2h0Z"/>
  </g>
  <path class="cls-1" d="m123.55,188.01c0,.74,0,1.43-2.32,1.43l-7.09-.04c-2.33,0-2.4-.69-2.4-1.43v-5.74c0-.74.78-1.03,2.17-1.03l7.54-.04c2.32,0,2.09.37,2.09,1.1v5.74Zm7.16,20.48c0,.74-1.16,1.1-3.49,1.1h-19.14c-2.33,0-3.49-.37-3.49-1.1v-16.34c0-.74,1.16-1.1,3.49-1.1h19.14c2.32,0,3.49.37,3.49,1.1v16.34Z"/>
  <path class="cls-1" d="m141.67,185.66c0,.31,3.16-2.13,3.85-2.84l1.66-1.55c.07-.07.17-.11.27-.12,1.35-.11,2.06.02,3.04.02h6.96c.31,0,.47.22.47.67,0,.41-.12.75-.35,1.03,0,0-3.79,5.59-7.7,10.2-.4.48-.22.98.05,1.63l7.65,12.92c.14.4.27.61.35,1.03s-.16.67-.47.67h-9.57c-.19,0-.38-.02-.55-.11-1.32-.77-3.1-2.15-3.1-2.15-.61-.42-2.23-1.72-2.56-1.92m0,0v1.68c0,.81-.22,2.51-1,2.51h-7.1c-.78,0-1.18-.4-1.18-1.21v-25.72c0-.81.39-1.21,1.18-1.21h7.4c.78,0,.7.67.7,1.48v3.01"/>
  <path class="cls-1" d="m187.46,208.1c0,.67-.54,1.21-1.2,1.21h-20.46c-2.31,0-3.78-.83-5.42-2.49-1.64-1.66-2.45-3.66-2.45-6.01v-11.16c0-2.25.88-4.41,2.45-6s3.11-2.49,5.42-2.49h13.28c2.31,0,4.29.83,5.92,2.49,1.63,1.66,2.45,3.66,2.45,6.01v4.8c0,1.66,0,4.95-5.98,4.91h-15.67c-.66,0-1.2.54-1.2,1.21v.9c0,.31.25.56.55.56h21.11c.66,0,1.2.54,1.2,1.21v4.85Z"/>
  <g>
    <rect class="cls-1" x="197.37" y="178.38" width="94.26" height="33.61" rx="9.2" ry="9.2"/>
    <path class="cls-2" d="m221.58,187.98c0,.74,0,1.43-2.32,1.43l-7.09-.04c-2.33,0-2.4-.69-2.4-1.43v-5.74c0-.74.78-1.03,2.17-1.03l7.54-.04c2.32,0,2.09.37,2.09,1.1v5.74Zm7.16,20.48c0,.74-1.16,1.1-3.49,1.1h-19.14c-2.33,0-3.49-.37-3.49-1.1v-16.34c0-.74,1.16-1.1,3.49-1.1h19.14c2.32,0,3.49.37,3.49,1.1v16.34Z"/>
    <path class="cls-2" d="m239.7,185.63c0,.31,3.16-2.13,3.85-2.84l1.66-1.55c.07-.07.17-.11.27-.12,1.35-.11,2.06.02,3.04.02h6.96c.31,0,.47.22.47.67,0,.41-.12.75-.35,1.03,0,0-3.79,5.59-7.7,10.2-.4.48-.22.98.05,1.63l7.65,12.92c.14.4.27.61.35,1.03s-.16.67-.47.67h-9.57c-.19,0-.38-.02-.55-.11-1.32-.77-3.1-2.15-3.1-2.15-.61-.42-2.23-1.72-2.56-1.92m0,0v1.68c0,.81-.22,2.51-1,2.51h-7.1c-.78,0-1.18-.4-1.18-1.21v-25.72c0-.81.39-1.21,1.18-1.21h7.4c.78,0,.7.67.7,1.48v3.01"/>
    <path class="cls-2" d="m285.49,208.07c0,.67-.54,1.21-1.2,1.21h-20.46c-2.31,0-3.78-.83-5.42-2.49-1.64-1.66-2.45-3.66-2.45-6.01v-11.16c0-2.25.88-4.41,2.45-6s3.11-2.49,5.42-2.49h13.28c2.31,0,4.29.83,5.92,2.49,1.63,1.66,2.45,3.66,2.45,6.01v4.8c0,1.66,0,4.95-5.98,4.91h-15.67c-.66,0-1.2.54-1.2,1.21v.9c0,.31.25.56.55.56h21.11c.66,0,1.2.54,1.2,1.21v4.85Z"/>
  </g>
  <g>
    <rect class="cls-2" x="295.9" y="178.91" width="93.26" height="32.61" rx="8.7" ry="8.7"/>
    <path class="cls-1" d="m380.46,179.41c4.52,0,8.2,3.68,8.2,8.2v15.22c0,4.52-3.68,8.2-8.2,8.2h-75.86c-4.52,0-8.2-3.68-8.2-8.2v-15.22c0-4.52,3.68-8.2,8.2-8.2h75.86m0-1h-75.86c-5.06,0-9.2,4.14-9.2,9.2v15.22c0,5.06,4.14,9.2,9.2,9.2h75.86c5.06,0,9.2-4.14,9.2-9.2v-15.22c0-5.06-4.14-9.2-9.2-9.2h0Z"/>
  </g>
  <path class="cls-1" d="m319.61,188.01c0,.74,0,1.43-2.32,1.43l-7.09-.04c-2.33,0-2.4-.69-2.4-1.43v-5.74c0-.74.78-1.03,2.17-1.03l7.54-.04c2.32,0,2.09.37,2.09,1.1v5.74Zm7.16,20.48c0,.74-1.16,1.1-3.49,1.1h-19.14c-2.33,0-3.49-.37-3.49-1.1v-16.34c0-.74,1.16-1.1,3.49-1.1h19.14c2.32,0,3.49.37,3.49,1.1v16.34Z"/>
  <path class="cls-1" d="m337.73,185.66c0,.31,3.16-2.13,3.85-2.84l1.66-1.55c.07-.07.17-.11.27-.12,1.35-.11,2.06.02,3.04.02h6.96c.31,0,.47.22.47.67,0,.41-.12.75-.35,1.03,0,0-3.79,5.59-7.7,10.2-.4.48-.22.98.05,1.63l7.65,12.92c.14.4.27.61.35,1.03s-.16.67-.47.67h-9.57c-.19,0-.38-.02-.55-.11-1.32-.77-3.1-2.15-3.1-2.15-.61-.42-2.23-1.72-2.56-1.92m0,0v1.68c0,.81-.22,2.51-1,2.51h-7.1c-.78,0-1.18-.4-1.18-1.21v-25.72c0-.81.39-1.21,1.18-1.21h7.4c.78,0,.7.67.7,1.48v3.01"/>
  <path class="cls-1" d="m383.52,208.1c0,.67-.54,1.21-1.2,1.21h-20.46c-2.31,0-3.78-.83-5.42-2.49-1.64-1.66-2.45-3.66-2.45-6.01v-11.16c0-2.25.88-4.41,2.45-6s3.11-2.49,5.42-2.49h13.28c2.31,0,4.29.83,5.92,2.49,1.63,1.66,2.45,3.66,2.45,6.01v4.8c0,1.66,0,4.95-5.98,4.91h-15.67c-.66,0-1.2.54-1.2,1.21v.9c0,.31.25.56.55.56h21.11c.66,0,1.2.54,1.2,1.21v4.85Z"/>
  <g>
    <rect class="cls-1" x="393.44" y="178.38" width="94.26" height="33.61" rx="9.2" ry="9.2"/>
    <path class="cls-2" d="m417.65,187.98c0,.74,0,1.43-2.32,1.43l-7.09-.04c-2.33,0-2.4-.69-2.4-1.43v-5.74c0-.74.78-1.03,2.17-1.03l7.54-.04c2.32,0,2.09.37,2.09,1.1v5.74Zm7.16,20.48c0,.74-1.16,1.1-3.49,1.1h-19.14c-2.33,0-3.49-.37-3.49-1.1v-16.34c0-.74,1.16-1.1,3.49-1.1h19.14c2.32,0,3.49.37,3.49,1.1v16.34Z"/>
    <path class="cls-2" d="m435.77,185.63c0,.31,3.16-2.13,3.85-2.84l1.66-1.55c.07-.07.17-.11.27-.12,1.35-.11,2.06.02,3.04.02h6.96c.31,0,.47.22.47.67,0,.41-.12.75-.35,1.03,0,0-3.79,5.59-7.7,10.2-.4.48-.22.98.05,1.63l7.65,12.92c.14.4.27.61.35,1.03s-.16.67-.47.67h-9.57c-.19,0-.38-.02-.55-.11-1.32-.77-3.1-2.15-3.1-2.15-.61-.42-2.23-1.72-2.56-1.92m0,0v1.68c0,.81-.22,2.51-1,2.51h-7.1c-.78,0-1.18-.4-1.18-1.21v-25.72c0-.81.39-1.21,1.18-1.21h7.4c.78,0,.7.67.7,1.48v3.01"/>
    <path class="cls-2" d="m481.56,208.07c0,.67-.54,1.21-1.2,1.21h-20.46c-2.31,0-3.78-.83-5.42-2.49-1.64-1.66-2.45-3.66-2.45-6.01v-11.16c0-2.25.88-4.41,2.45-6s3.11-2.49,5.42-2.49h13.28c2.31,0,4.29.83,5.92,2.49,1.63,1.66,2.45,3.66,2.45,6.01v4.8c0,1.66,0,4.95-5.98,4.91h-15.67c-.66,0-1.2.54-1.2,1.21v.9c0,.31.25.56.55.56h21.11c.66,0,1.2.54,1.2,1.21v4.85Z"/>
  </g>
  <g>
    <path class="cls-2" d="m500.67,178.91h75.86c4.8,0,8.7,3.9,8.7,8.7v15.22c0,4.8-3.9,8.7-8.7,8.7h-75.86c-4.8,0-8.7-3.9-8.7-8.7v-15.22c0-4.8,3.9-8.7,8.7-8.7Z"/>
    <path class="cls-1" d="m576.53,179.41c4.52,0,8.2,3.68,8.2,8.2v15.22c0,4.52-3.68,8.2-8.2,8.2h-75.86c-4.52,0-8.2-3.68-8.2-8.2v-15.22c0-4.52,3.68-8.2,8.2-8.2h75.86m0-1h-75.86c-5.06,0-9.2,4.14-9.2,9.2v15.22c0,5.06,4.14,9.2,9.2,9.2h75.86c5.06,0,9.2-4.14,9.2-9.2v-15.22c0-5.06-4.14-9.2-9.2-9.2h0Z"/>
  </g>
  <path class="cls-1" d="m515.68,188.01c0,.74,0,1.43-2.32,1.43l-7.09-.04c-2.33,0-2.4-.69-2.4-1.43v-5.74c0-.74.78-1.03,2.17-1.03l7.54-.04c2.32,0,2.09.37,2.09,1.1v5.74Zm7.16,20.48c0,.74-1.16,1.1-3.49,1.1h-19.14c-2.33,0-3.49-.37-3.49-1.1v-16.34c0-.74,1.16-1.1,3.49-1.1h19.14c2.32,0,3.49.37,3.49,1.1v16.34Z"/>
  <path class="cls-1" d="m533.8,185.66c0,.31,3.16-2.13,3.85-2.84l1.66-1.55c.07-.07.17-.11.27-.12,1.35-.11,2.06.02,3.04.02h6.96c.31,0,.47.22.47.67,0,.41-.12.75-.35,1.03,0,0-3.79,5.59-7.7,10.2-.4.48-.22.98.05,1.63l7.65,12.92c.14.4.27.61.35,1.03s-.16.67-.47.67h-9.57c-.19,0-.38-.02-.55-.11-1.32-.77-3.1-2.15-3.1-2.15-.61-.42-2.23-1.72-2.56-1.92m0,0v1.68c0,.81-.22,2.51-1,2.51h-7.1c-.78,0-1.18-.4-1.18-1.21v-25.72c0-.81.39-1.21,1.18-1.21h7.4c.78,0,.7.67.7,1.48v3.01"/>
  <path class="cls-1" d="m579.59,208.1c0,.67-.54,1.21-1.2,1.21h-20.46c-2.31,0-3.78-.83-5.42-2.49-1.64-1.66-2.45-3.66-2.45-6.01v-11.16c0-2.25.88-4.41,2.45-6s3.11-2.49,5.42-2.49h13.28c2.31,0,4.29.83,5.92,2.49,1.63,1.66,2.45,3.66,2.45,6.01v4.8c0,1.66,0,4.95-5.98,4.91h-15.67c-.66,0-1.2.54-1.2,1.21v.9c0,.31.25.56.55.56h21.11c.66,0,1.2.54,1.2,1.21v4.85Z"/>
  <g>
    <rect class="cls-1" x="589.5" y="178.38" width="94.26" height="33.61" rx="9.2" ry="9.2"/>
    <path class="cls-2" d="m613.71,187.98c0,.74,0,1.43-2.32,1.43l-7.09-.04c-2.33,0-2.4-.69-2.4-1.43v-5.74c0-.74.78-1.03,2.17-1.03l7.54-.04c2.32,0,2.09.37,2.09,1.1v5.74Zm7.16,20.48c0,.74-1.16,1.1-3.49,1.1h-19.14c-2.33,0-3.49-.37-3.49-1.1v-16.34c0-.74,1.16-1.1,3.49-1.1h19.14c2.32,0,3.49.37,3.49,1.1v16.34Z"/>
    <path class="cls-2" d="m631.83,185.63c0,.31,3.16-2.13,3.85-2.84l1.66-1.55c.07-.07.17-.11.27-.12,1.35-.11,2.06.02,3.04.02h6.96c.31,0,.47.22.47.67,0,.41-.12.75-.35,1.03,0,0-3.79,5.59-7.7,10.2-.4.48-.22.98.05,1.63l7.65,12.92c.14.4.27.61.35,1.03s-.16.67-.47.67h-9.57c-.19,0-.38-.02-.55-.11-1.32-.77-3.1-2.15-3.1-2.15-.61-.42-2.23-1.72-2.56-1.92m0,0v1.68c0,.81-.22,2.51-1,2.51h-7.1c-.78,0-1.18-.4-1.18-1.21v-25.72c0-.81.39-1.21,1.18-1.21h7.4c.78,0,.7.67.7,1.48v3.01"/>
    <path class="cls-2" d="m677.62,208.07c0,.67-.54,1.21-1.2,1.21h-20.46c-2.31,0-3.78-.83-5.42-2.49-1.64-1.66-2.45-3.66-2.45-6.01v-11.16c0-2.25.88-4.41,2.45-6s3.11-2.49,5.42-2.49h13.28c2.31,0,4.29.83,5.92,2.49,1.63,1.66,2.45,3.66,2.45,6.01v4.8c0,1.66,0,4.95-5.98,4.91h-15.67c-.66,0-1.2.54-1.2,1.21v.9c0,.31.25.56.55.56h21.11c.66,0,1.2.54,1.2,1.21v4.85Z"/>
  </g>
  <g>
    <path class="cls-2" d="m696.73,178.91h75.86c4.8,0,8.7,3.9,8.7,8.7v15.22c0,4.8-3.9,8.7-8.7,8.7h-75.86c-4.8,0-8.7-3.9-8.7-8.7v-15.22c0-4.8,3.9-8.7,8.7-8.7Z"/>
    <path class="cls-1" d="m772.6,179.41c4.52,0,8.2,3.68,8.2,8.2v15.22c0,4.52-3.68,8.2-8.2,8.2h-75.86c-4.52,0-8.2-3.68-8.2-8.2v-15.22c0-4.52,3.68-8.2,8.2-8.2h75.86m0-1h-75.86c-5.06,0-9.2,4.14-9.2,9.2v15.22c0,5.06,4.14,9.2,9.2,9.2h75.86c5.06,0,9.2-4.14,9.2-9.2v-15.22c0-5.06-4.14-9.2-9.2-9.2h0Z"/>
  </g>
  <path class="cls-1" d="m711.75,188.01c0,.74,0,1.43-2.32,1.43l-7.09-.04c-2.33,0-2.4-.69-2.4-1.43v-5.74c0-.74.78-1.03,2.17-1.03l7.54-.04c2.32,0,2.09.37,2.09,1.1v5.74Zm7.16,20.48c0,.74-1.16,1.1-3.49,1.1h-19.14c-2.33,0-3.49-.37-3.49-1.1v-16.34c0-.74,1.16-1.1,3.49-1.1h19.14c2.32,0,3.49.37,3.49,1.1v16.34Z"/>
  <path class="cls-1" d="m729.87,185.66c0,.31,3.16-2.13,3.85-2.84l1.66-1.55c.07-.07.17-.11.27-.12,1.35-.11,2.06.02,3.04.02h6.96c.31,0,.47.22.47.67,0,.41-.12.75-.35,1.03,0,0-3.79,5.59-7.7,10.2-.4.48-.22.98.05,1.63l7.65,12.92c.14.4.27.61.35,1.03s-.16.67-.47.67h-9.57c-.19,0-.38-.02-.55-.11-1.32-.77-3.1-2.15-3.1-2.15-.61-.42-2.23-1.72-2.56-1.92m0,0v1.68c0,.81-.22,2.51-1,2.51h-7.1c-.78,0-1.18-.4-1.18-1.21v-25.72c0-.81.39-1.21,1.18-1.21h7.4c.78,0,.7.67.7,1.48v3.01"/>
  <path class="cls-1" d="m775.66,208.1c0,.67-.54,1.21-1.2,1.21h-20.46c-2.31,0-3.78-.83-5.42-2.49-1.64-1.66-2.45-3.66-2.45-6.01v-11.16c0-2.25.88-4.41,2.45-6s3.11-2.49,5.42-2.49h13.28c2.31,0,4.29.83,5.92,2.49,1.63,1.66,2.45,3.66,2.45,6.01v4.8c0,1.66,0,4.95-5.98,4.91h-15.67c-.66,0-1.2.54-1.2,1.21v.9c0,.31.25.56.55.56h21.11c.66,0,1.2.54,1.2,1.21v4.85Z"/>
</svg>