<?xml version="1.0" encoding="utf-8"?>
<!-- Generator: Adobe Illustrator 27.9.0, SVG Export Plug-In . SVG Version: 6.00 Build 0)  -->
<svg version="1.1" id="Layer_1" xmlns="http://www.w3.org/2000/svg" xmlns:xlink="http://www.w3.org/1999/xlink" x="0px" y="0px"
	 viewBox="0 0 800 60" style="enable-background:new 0 0 800 60;" xml:space="preserve">
<style type="text/css">
	.st0{fill:#143652;}
	.st1{fill:#FFFFFF;}
	.st2{fill:#FFFFFF;stroke:#143652;stroke-width:3;stroke-miterlimit:10;}
</style>
<g>
	<path class="st0" d="M464.8,59.1H335.2c-7,0-12.8-5.8-12.8-12.8V13.7c0-7,5.8-12.8,12.8-12.8h129.7c7,0,12.8,5.8,12.8,12.8v32.6
		C477.6,53.3,471.9,59.1,464.8,59.1z"/>
	<g>
		<path class="st1" d="M364,18.1c0,1.2,0,2.3-3.8,2.3l-11.7-0.1c-3.8,0-3.9-1.1-3.9-2.3V8.7c0-1.2,1.3-1.7,3.6-1.7L360.5,7
			c3.8,0,3.4,0.6,3.4,1.8V18.1z M375.8,51.3c0,1.2-1.9,1.8-5.7,1.8h-31.5c-3.8,0-5.7-0.6-5.7-1.8V24.8c0-1.2,1.9-1.8,5.7-1.8H370
			c3.8,0,5.7,0.6,5.7,1.8V51.3z"/>
		<path class="st1" d="M393.8,14.3c0,0.5,5.2-3.5,6.3-4.6l2.6-2.3c0.2-0.2,0.5-0.4,0.9-0.4c2.1-0.1,3.2,0,4.8,0h11.5
			c0.5,0,0.8,0.4,0.8,1.1c0,0.7-0.2,1.2-0.6,1.7c0,0-6.2,9.1-12.7,16.6c-0.7,0.8-0.4,1.6,0.1,2.6c0,0,0,0.1,0,0.1L420,49.9
			c0,0,0,0.1,0.1,0.1c0.2,0.6,0.4,1,0.6,1.6c0.1,0.7-0.3,1.1-0.8,1.1h-14h-1.7c-0.4,0-1-0.2-1.4-0.4c-2-1.2-4.5-3.1-4.8-3.3
			c0,0,0,0,0,0c-1-0.7-3.7-2.8-4.2-3.1 M393.8,45.9l0,2.7c0,1.3-0.4,4.1-1.6,4.1h-11.7c-1.3,0-1.9-0.7-1.9-2V8.9c0-1.3,0.6-2,1.9-2
			h12.2c1.3,0,1.2,1.1,1.2,2.4v4.9"/>
		<path class="st1" d="M467.3,50c0,1.5-1.2,2.7-2.7,2.7h-33c-3.8,0-6.2-1.3-8.9-4c-2.7-2.7-4-5.9-4-9.8V21.1c0-4,1.6-7.8,4.5-10.5
			c2.5-2.4,4.9-3.6,8.5-3.6h21.9c3.8,0,7.1,1.3,9.8,4c2.7,2.7,4,5.9,4,9.8v7.8c0,2.7,0,8-9.9,8h-25.1c-1.5,0-2.7,1.2-2.7,2.7v0.1
			c0,0.9,0.7,1.6,1.6,1.6h33.4c1.5,0,2.7,1.2,2.7,2.7V50z"/>
	</g>
</g>
<path class="st2" d="M302.9,59.1H173.2c-7,0-12.8-5.8-12.8-12.8V13.7c0-7,5.8-12.8,12.8-12.8h129.7c7,0,12.8,5.8,12.8,12.8v32.6
	C315.7,53.3,310,59.1,302.9,59.1z"/>
<path class="st2" d="M302.9,59.1H173.2c-7,0-12.8-5.8-12.8-12.8V13.7c0-7,5.8-12.8,12.8-12.8h129.7c7,0,12.8,5.8,12.8,12.8v32.6
	C315.7,53.3,310,59.1,302.9,59.1z"/>
<g>
	<path class="st0" d="M202.1,18.1c0,1.2,0,2.3-3.8,2.3l-11.7-0.1c-3.8,0-3.9-1.1-3.9-2.3V8.7c0-1.2,1.3-1.7,3.6-1.7L198.6,7
		c3.8,0,3.4,0.6,3.4,1.8V18.1z M213.9,51.3c0,1.2-1.9,1.8-5.7,1.8h-31.5c-3.8,0-5.7-0.6-5.7-1.8V24.8c0-1.2,1.9-1.8,5.7-1.8h31.5
		c3.8,0,5.7,0.6,5.7,1.8V51.3z"/>
	<path class="st0" d="M231.9,14.3c0,0.5,5.2-3.5,6.3-4.6l2.6-2.3c0.2-0.2,0.5-0.4,0.9-0.4c2.1-0.1,3.2,0,4.8,0h11.5
		c0.5,0,0.8,0.4,0.8,1.1c0,0.7-0.2,1.2-0.6,1.7c0,0-6.2,9.1-12.7,16.6c-0.7,0.8-0.4,1.6,0.1,2.6c0,0,0,0.1,0,0.1l12.5,20.9
		c0,0,0,0.1,0.1,0.1c0.2,0.6,0.4,1,0.6,1.6c0.1,0.7-0.3,1.1-0.8,1.1h-14h-1.7c-0.4,0-1-0.2-1.4-0.4c-2-1.2-4.5-3.1-4.8-3.3
		c0,0,0,0,0,0c-1-0.7-3.7-2.8-4.2-3.1 M231.9,45.9l0,2.7c0,1.3-0.4,4.1-1.6,4.1h-11.7c-1.3,0-1.9-0.7-1.9-2V8.9c0-1.3,0.6-2,1.9-2
		h12.2c1.3,0,1.2,1.1,1.2,2.4v4.9"/>
	<path class="st0" d="M305.3,50c0,1.5-1.2,2.7-2.7,2.7h-33c-3.8,0-6.2-1.3-8.9-4c-2.7-2.7-4-5.9-4-9.8V21.1c0-4,1.6-7.8,4.5-10.5
		c2.5-2.4,4.9-3.6,8.5-3.6h21.9c3.8,0,7.1,1.3,9.8,4c2.7,2.7,4,5.9,4,9.8v7.8c0,2.7,0,8-9.9,8h-25.1c-1.5,0-2.7,1.2-2.7,2.7v0.1
		c0,0.9,0.7,1.6,1.6,1.6h33.4c1.5,0,2.7,1.2,2.7,2.7V50z"/>
</g>
<g>
	<path class="st0" d="M142.5,59.1H12.8C5.8,59.1,0,53.3,0,46.3V13.7c0-7,5.8-12.8,12.8-12.8h129.7c7,0,12.8,5.8,12.8,12.8v32.6
		C155.3,53.3,149.5,59.1,142.5,59.1z"/>
	<g>
		<path class="st1" d="M41.6,18.1c0,1.2,0,2.3-3.8,2.3l-11.7-0.1c-3.8,0-3.9-1.1-3.9-2.3V8.7c0-1.2,1.3-1.7,3.6-1.7L38.2,7
			c3.8,0,3.4,0.6,3.4,1.8V18.1z M53.4,51.3c0,1.2-1.9,1.8-5.7,1.8H16.1c-3.8,0-5.7-0.6-5.7-1.8V24.8c0-1.2,1.9-1.8,5.7-1.8h31.5
			c3.8,0,5.7,0.6,5.7,1.8V51.3z"/>
		<path class="st1" d="M71.5,14.3c0,0.5,5.2-3.5,6.3-4.6l2.6-2.3c0.2-0.2,0.5-0.4,0.9-0.4c2.1-0.1,3.2,0,4.8,0h11.5
			c0.5,0,0.8,0.4,0.8,1.1c0,0.7-0.2,1.2-0.6,1.7c0,0-6.2,9.1-12.7,16.6c-0.7,0.8-0.4,1.6,0.1,2.6c0,0,0,0.1,0,0.1l12.5,20.9
			c0,0,0,0.1,0.1,0.1c0.2,0.6,0.4,1,0.6,1.6c0.1,0.7-0.3,1.1-0.8,1.1h-14h-1.7c-0.4,0-1-0.2-1.4-0.4c-2-1.2-4.5-3.1-4.8-3.3
			c0,0,0,0,0,0c-1-0.7-3.7-2.8-4.2-3.1 M71.5,45.9l0,2.7c0,1.3-0.4,4.1-1.6,4.1H58.1c-1.3,0-1.9-0.7-1.9-2V8.9c0-1.3,0.6-2,1.9-2
			h12.2c1.3,0,1.2,1.1,1.2,2.4v4.9"/>
		<path class="st1" d="M144.9,50c0,1.5-1.2,2.7-2.7,2.7h-33c-3.8,0-6.2-1.3-8.9-4c-2.7-2.7-4-5.9-4-9.8V21.1c0-4,1.6-7.8,4.5-10.5
			c2.5-2.4,4.9-3.6,8.5-3.6h21.9c3.8,0,7.1,1.3,9.8,4c2.7,2.7,4,5.9,4,9.8v7.8c0,2.7,0,8-9.9,8h-25.1c-1.5,0-2.7,1.2-2.7,2.7v0.1
			c0,0.9,0.7,1.6,1.6,1.6h33.4c1.5,0,2.7,1.2,2.7,2.7V50z"/>
	</g>
</g>
<g>
	<path class="st0" d="M785.7,59.1H656c-7,0-12.8-5.8-12.8-12.8V13.7c0-7,5.8-12.8,12.8-12.8h129.7c7,0,12.8,5.8,12.8,12.8v32.6
		C798.5,53.3,792.8,59.1,785.7,59.1z"/>
	<g>
		<path class="st1" d="M684.9,18.1c0,1.2,0,2.3-3.8,2.3l-11.7-0.1c-3.8,0-3.9-1.1-3.9-2.3V8.7c0-1.2,1.3-1.7,3.6-1.7L681.4,7
			c3.8,0,3.4,0.6,3.4,1.8V18.1z M696.7,51.3c0,1.2-1.9,1.8-5.7,1.8h-31.5c-3.8,0-5.7-0.6-5.7-1.8V24.8c0-1.2,1.9-1.8,5.7-1.8h31.5
			c3.8,0,5.7,0.6,5.7,1.8V51.3z"/>
		<path class="st1" d="M714.7,14.3c0,0.5,5.2-3.5,6.3-4.6l2.6-2.3c0.2-0.2,0.5-0.4,0.9-0.4c2.1-0.1,3.2,0,4.8,0h11.5
			c0.5,0,0.8,0.4,0.8,1.1c0,0.7-0.2,1.2-0.6,1.7c0,0-6.2,9.1-12.7,16.6c-0.7,0.8-0.4,1.6,0.1,2.6c0,0,0,0.1,0,0.1l12.5,20.9
			c0,0,0,0.1,0.1,0.1c0.2,0.6,0.4,1,0.6,1.6c0.1,0.7-0.3,1.1-0.8,1.1h-14h-1.7c-0.4,0-1-0.2-1.4-0.4c-2-1.2-4.5-3.1-4.8-3.3
			c0,0,0,0,0,0c-1-0.7-3.7-2.8-4.2-3.1 M714.7,45.9l0,2.7c0,1.3-0.4,4.1-1.6,4.1h-11.7c-1.3,0-1.9-0.7-1.9-2V8.9c0-1.3,0.6-2,1.9-2
			h12.2c1.3,0,1.2,1.1,1.2,2.4v4.9"/>
		<path class="st1" d="M788.1,50c0,1.5-1.2,2.7-2.7,2.7h-33c-3.8,0-6.2-1.3-8.9-4c-2.7-2.7-4-5.9-4-9.8V21.1c0-4,1.6-7.8,4.5-10.5
			c2.5-2.4,4.9-3.6,8.5-3.6h21.9c3.8,0,7.1,1.3,9.8,4c2.7,2.7,4,5.9,4,9.8v7.8c0,2.7,0,8-9.9,8h-25.1c-1.5,0-2.7,1.2-2.7,2.7v0.1
			c0,0.9,0.7,1.6,1.6,1.6h33.4c1.5,0,2.7,1.2,2.7,2.7V50z"/>
	</g>
</g>
<g>
	<path class="st2" d="M625.3,59.1H495.6c-7,0-12.8-5.8-12.8-12.8V13.7c0-7,5.8-12.8,12.8-12.8h129.7c7,0,12.8,5.8,12.8,12.8v32.6
		C638.1,53.3,632.3,59.1,625.3,59.1z"/>
	<path class="st2" d="M625.3,59.1H495.6c-7,0-12.8-5.8-12.8-12.8V13.7c0-7,5.8-12.8,12.8-12.8h129.7c7,0,12.8,5.8,12.8,12.8v32.6
		C638.1,53.3,632.3,59.1,625.3,59.1z"/>
	<g>
		<path class="st0" d="M524.4,18.1c0,1.2,0,2.3-3.8,2.3l-11.7-0.1c-3.8,0-3.9-1.1-3.9-2.3V8.7c0-1.2,1.3-1.7,3.6-1.7L521,7
			c3.8,0,3.4,0.6,3.4,1.8V18.1z M536.2,51.3c0,1.2-1.9,1.8-5.7,1.8h-31.5c-3.8,0-5.7-0.6-5.7-1.8V24.8c0-1.2,1.9-1.8,5.7-1.8h31.5
			c3.8,0,5.7,0.6,5.7,1.8V51.3z"/>
		<path class="st0" d="M554.3,14.3c0,0.5,5.2-3.5,6.3-4.6l2.6-2.3c0.2-0.2,0.5-0.4,0.9-0.4c2.1-0.1,3.2,0,4.8,0h11.5
			c0.5,0,0.8,0.4,0.8,1.1c0,0.7-0.2,1.2-0.6,1.7c0,0-6.2,9.1-12.7,16.6c-0.7,0.8-0.4,1.6,0.1,2.6c0,0,0,0.1,0,0.1l12.5,20.9
			c0,0,0,0.1,0.1,0.1c0.2,0.6,0.4,1,0.6,1.6c0.1,0.7-0.3,1.1-0.8,1.1h-14h-1.7c-0.4,0-1-0.2-1.4-0.4c-2-1.2-4.5-3.1-4.8-3.3
			c0,0,0,0,0,0c-1-0.7-3.7-2.8-4.2-3.1 M554.3,45.9l0,2.7c0,1.3-0.4,4.1-1.6,4.1h-11.7c-1.3,0-1.9-0.7-1.9-2V8.9c0-1.3,0.6-2,1.9-2
			h12.2c1.3,0,1.2,1.1,1.2,2.4v4.9"/>
		<path class="st0" d="M627.7,50c0,1.5-1.2,2.7-2.7,2.7h-33c-3.8,0-6.2-1.3-8.9-4c-2.7-2.7-4-5.9-4-9.8V21.1c0-4,1.6-7.8,4.5-10.5
			C586,8.2,588.4,7,592,7h21.9c3.8,0,7.1,1.3,9.8,4c2.7,2.7,4,5.9,4,9.8v7.8c0,2.7,0,8-9.9,8h-25.1c-1.5,0-2.7,1.2-2.7,2.7v0.1
			c0,0.9,0.7,1.6,1.6,1.6H625c1.5,0,2.7,1.2,2.7,2.7V50z"/>
	</g>
</g>
</svg>
