<?xml version="1.0" encoding="UTF-8"?>
<svg id="Layer_1" data-name="Layer 1" xmlns="http://www.w3.org/2000/svg" viewBox="0 0 772.7014 289.60066">
  <defs>
    <style>
      .cls-1 {
        fill: #163652;
      }

      .cls-1, .cls-2 {
        stroke-width: 0px;
      }

      .cls-2 {
        fill: #fff;
      }
    </style>
  </defs>
  <rect class="cls-1" width="772.7014" height="289.60066" rx="23.55197" ry="23.55197"/>
  <path class="cls-2" d="m207.10506,85.48197c0,5.95141.05395,11.55093-18.99796,11.55093l-58.12709-.29105c-19.06586,0-19.64671-5.59952-19.64671-11.55093v-46.36983c0-5.9427,6.40435-8.3374,17.81204-8.3374l61.83315-.29105c19.05191,0,17.12657,2.97679,17.12657,8.91949v46.36983Zm58.69413,165.50206c0,5.95141-9.53293,8.91949-28.58484,8.91949H80.27844c-19.06586,0-28.58484-2.96808-28.58484-8.91949V118.93006c0-5.9427,9.51897-8.91949,28.58484-8.91949h156.9359c19.05191,0,28.58484,2.97679,28.58484,8.91949v132.05397Z"/>
  <path class="cls-2" d="m355.64807,66.50588c0,2.47055,25.94151-17.23925,31.53455-22.96798l12.70928-11.6848c1.19424-1.09797,2.72929-1.76706,4.34752-1.88146,10.29042-.72743,15.94616.221,23.65551.221h57.06504c2.56975,0,3.85932,1.80077,3.85932,5.39514,0,3.27348-.96483,6.05367-2.89449,8.33816,0,0-31.04999,45.14974-63.131,82.4038-3.26352,3.78976-1.87805,7.81657.29191,12.95757.06449.15278.14103.30343.22644.44557l62.44668,103.92582c.11352.18892.20949.39505.28469.60223,1.09637,3.02023,2.11673,4.73443,2.77576,8.01757.7088,3.53111-1.28487,5.39514-3.85462,5.39514h-77.6579c-2.07094,0-5.22331-.85605-7.00095-1.91848-10.1707-6.07866-22.62421-15.54457-23.63751-16.31761-.0493-.03761-.08917-.06594-.14058-.10061-5.05746-3.41085-18.19381-13.88376-20.87191-15.4899m0,0l-.00775,13.54811c0,6.54457-1.75871,20.27849-8.18307,20.27849h-58.20883c-6.42907,0-9.6389-3.2639-9.6389-9.80847V40.00112c0-6.53499,3.20983-9.80847,9.6389-9.80847h60.63379c6.42436,0,5.75811,5.44711,5.75811,11.9821v24.33113"/>
  <path class="cls-2" d="m721.0078,244.40812c0,7.32635-5.93918,13.26553-13.26553,13.26553h-164.26402c-18.9656,0-31.00842-6.69783-44.40886-20.10785-13.41002-13.40284-20.10546-29.58586-20.10546-48.55147l.00002-88.5962c0-19.70331,7.99845-38.59961,22.245-52.2105,12.56877-12.00797,24.31797-18.01499,42.2693-18.01499h108.87023c18.96081,0,35.14384,6.70501,48.55386,20.10785,13.40044,13.41002,20.10546,29.59544,20.10546,48.55147v38.7598c0,13.41002,0,39.97627-49.04237,39.66446h-125.03012c-7.32635,0-13.26553,5.93918-13.26553,13.26553v.33653c0,4.38764,3.55689,7.94453,7.94453,7.94453h166.12796c7.32635,0,13.26553,5.93918,13.26553,13.26553v32.31979Z"/>
</svg>